/* XPM */
static char *_2121b75b58a4484c9125f541f5bf058ZOV09NKB27dzYYt9[] = {
/* columns rows colors chars-per-pixel */
"64 64 157 2 ",
"   c #070707",
".  c #0C0C0C",
"X  c #141414",
"o  c #161817",
"O  c #1B1817",
"+  c #181718",
"@  c #1C1C1C",
"#  c #241816",
"$  c #231D1C",
"%  c #2B1D1C",
"&  c #341B17",
"*  c #3A1E19",
"=  c #2C211E",
"-  c #33201C",
";  c #3C221D",
":  c #252525",
">  c #2B2624",
",  c #262826",
"<  c #2B2825",
"1  c #292728",
"2  c #272828",
"3  c #2B2B2B",
"4  c #332623",
"5  c #3B2622",
"6  c #332825",
"7  c #3D2923",
"8  c #312E2D",
"9  c #3B2D2B",
"0  c #2F302F",
"q  c #31302E",
"w  c #3D312D",
"e  c #312F30",
"r  c #343333",
"t  c #393635",
"y  c #3C3837",
"u  c #393738",
"i  c #3C3B3B",
"p  c #421E17",
"a  c #561D1C",
"s  c #5A1F19",
"d  c #621F17",
"f  c #641D1B",
"g  c #6C1E19",
"h  c #721B17",
"j  c #741919",
"k  c #44231E",
"l  c #4B241D",
"z  c #53241D",
"x  c #5B231D",
"c  c #64211B",
"v  c #6B231D",
"b  c #422621",
"n  c #4B2621",
"m  c #452B25",
"M  c #4C2B24",
"N  c #422C2A",
"B  c #4B2E2A",
"V  c #532620",
"C  c #5A2520",
"Z  c #532B24",
"A  c #5A2C24",
"S  c #43312D",
"D  c #4C332E",
"F  c #54352E",
"G  c #5B332A",
"H  c #433632",
"J  c #413937",
"K  c #4B3935",
"L  c #423D3C",
"P  c #4D3F3C",
"I  c #533630",
"U  c #543C36",
"Y  c #5B3C34",
"T  c #503D39",
"R  c #5A3E3A",
"E  c #642B24",
"W  c #64332B",
"Q  c #653A2D",
"!  c #6C3B2F",
"~  c #653A32",
"^  c #46403E",
"/  c #4C413D",
"(  c #55433E",
")  c #5C433D",
"_  c #6E4135",
"`  c #65423A",
"'  c #704136",
"]  c #764739",
"[  c #7B4A3E",
"{  c #413F40",
"}  c #444243",
"|  c #4A4544",
" . c #4F4845",
".. c #494748",
"X. c #4D4B4B",
"o. c #534642",
"O. c #5D4541",
"+. c #544947",
"@. c #5B4945",
"#. c #524D4C",
"$. c #5B4E4C",
"%. c #51504F",
"&. c #5D514D",
"*. c #514F50",
"=. c #545353",
"-. c #595555",
";. c #5D5957",
":. c #575658",
">. c #595758",
",. c #5C5B5B",
"<. c #644640",
"1. c #634A46",
"2. c #6A4A44",
"3. c #634F4A",
"4. c #6E4E48",
"5. c #66534F",
"6. c #6A514C",
"7. c #655552",
"8. c #6D5750",
"9. c #665957",
"0. c #6A5955",
"q. c #625D5D",
"w. c #6C5E5A",
"e. c #725B54",
"r. c #785E54",
"t. c #725F5D",
"y. c #66605F",
"u. c #6D615D",
"i. c #7B6057",
"p. c #74625D",
"a. c #78645E",
"s. c #5F5E60",
"d. c #625F60",
"f. c #646364",
"g. c #6A6564",
"h. c #6E6867",
"j. c #676668",
"k. c #696769",
"l. c #6C6B6C",
"z. c #766663",
"x. c #736966",
"c. c #786862",
"v. c #736D6C",
"b. c #7A6E6B",
"n. c #7B726F",
"m. c #6E6F71",
"M. c #706F70",
"N. c #737274",
"B. c #7C7574",
"V. c #767679",
"C. c #78767A",
"Z. c #7A7A7B",
"A. c #80665E",
"S. c #807675",
"D. c #7D7E82",
"F. c #7F8084",
"G. c #848489",
/* pixels */
": : : : : : : : : : : : : : : : : : : : @ : : : : : : : : : : + : : : : : 2 : : : : : : : : : : : 2 : : + : : : : : : : : : 2 : ",
": : : : : : : : : : : : : : : : : : : : @ : : : : : : : : : : @ : : : : : : : : : : : : : : : : : : : : @ : : : : : : : : : : : ",
": : : : : : : : : : : : : : : : : : : : @ : : : : : : : : : : + : : : : : : : : : : : : : 2 : : : : : : + : : : : : : : : : : : ",
": : : : > 4 > > < > > > > > < : : : : : : : : : : : : : : : : + : : : : : : : : : , 1 1 3 1 : : : : : : @ : : : : : 2 : : : : : ",
": 2 r q B M S D Y 7 5 4 4 5 > > : : : : : : : : : : : : : : : @ e ....r t } 0 2 3 r +.%.X...0 2 : : : : @ : : : : : : : : : : : ",
": : 2 N S w S F U B 4 > 4 4 > > : : : : @ : : : 2 : : : : : : @ 2 0 0 2 r i i r J t | ....r r 1 : : : : @ : : : : : : : : : : : ",
": : r B Z N H ^ ( A b > > > 4 > > : : : @ : : : : : : : : : : @ 2 r y 2 8 r r e q t y 8 X.*.0 2 : : : : + : : : : : : : : : 2 : ",
": 3 } R G I P $.u.I 5 4 > > > > < : : : @ : : : : : : : : : : + 3 u y 2 1 3 r r 8 L $.t =.f.{ 3 : : : : @ : : : : : : : : : : : ",
": 3 i ) ` ` ( %.3.F 5 > > > > > : : : : @ : : : : : : : : : : @ u } r : 3 0 r 1 3 r y y ^ =.%.r : : : : + : : : : : : : : : 2 : ",
": 3 i / ` ( &.u.x.( 4 < < > > > : : : : @ : : : : : : : : : : @ 3 0 2 2 2 t u u 0 8 t o.p.#.y e : : : : @ : : : : : : : : : : : ",
": r X.%.X...=.j.C.y : : : : : : : : : : @ : : : : : : : : : 4 @ i { r y { ..y P L t J a.a.q.%.u : : : : @ : : : : : : : : : : : ",
": 0 =.,.f.s.l.l.C.y : : : : : : : : : : @ 2 : : : : : : : : 4 O : 3 r } } { +.o.( o.J c.S.V.%.8 - 4 4 4 % > : : : : : : : : : : ",
": r X.,.>.=.,.V.Z.r : : : : : : : : : : @ : : : : : : : : : > j 4 2 e { :.+.o.( 3.@.o.x.N.j.+.Z f f c v d n 4 1 : : : : : : 2 : ",
": i X.:.:.X.:.l.V.r : : : : : : : : : : @ : : : : : : : : : : # 1 1 u i $.u.e.r.i.8.p.n.l.=.K z C V x f s z b > : : : : : : : : ",
"2 u ..>.l.y.j.j.j.: : : : : : : : : : : : : : : : : : : : : : @ : r r #.g.c.p.8.6.p.A.n.Z.V.2.v h x 5 5 l z k 4 : : : : : : : : ",
": r } :.y.X.>.l.f.2 : : : : : : : > : : @ : : : : : : : : : : + 2 r } 7.t.z.g.0.0.p.c.h.f.,.I x g c z b p n 5 > : : : : : : : : ",
"@ 3 q y X.y } ..i : : : : @ : : @ f 4 @ . @ $ @ @ @ @ @ @ @ @ . @ t +.g.b.N.Z.B.V.j.q.q.>.#.K c g x z l p * = @ @ @ @ @ @ @ @ + ",
"o : : i { 0 r 0 3 o   + + @ @ + O a $ + X . + @ + + @ @ @ @ +   . o = O.x.v.v.b.v.l.v.g.=.} r l z k ; * ; ; ; $ + + o o + o + . ",
": : : r u 3 i r : : $ : 2 : : : 2 : : : @ @ : : : : : : : : : X , : 4 A <.=.q.g.g.q.h.f.-.} 1 : : : < : : : : : : : : : : : : : ",
": 3 3 3 2 3 0 r 3 : : : : < : : : : : : : : : : : : : : : : : @ , : > 4 4 5 b 4 6 4 < : 1 : : : : : : : : : : : : : : : : : : : ",
"2 u { { i { X.s.=.: : : n M 8 0 8 q J P L y y } i u u e : : : % 7 4 4 4 4 5 4 b m b > $ : : : : : : : : : : : : : : : : : : < : ",
": 0 i ..i { >.d.>.: : : c E y ..=.-.w.0.-.-.>.s.>.....i 1 2 > % < > 5 4 > 4 : : < 5 4 > 5 : : @ : : : : : : : : : : : : : : : : ",
": r ..{ u u X.m.f.2 : : > 8 3 r ^ +.0.7.&.#.X.....} | { 3 : 4 ; 5 < 4 > 4 > < : : > b p z b > < @ : : : : : : : : : : : : : : : ",
": i ..{ } i } f.-.: : : : : 1 e r L ^ } y y ..,.>.X.i i 1 : 4 * 7 5 ; 7 4 > : : : 5 v f V k l 2 : : : : : : : : : : : : : : : : ",
"2 u } ,.k.:.X.X.X.: : : : : 3 e ..i 0 0 r 3 r >.s.:.{ { r : > ; 5 5 5 6 5 > < : 4 l x l z z l 7 : : @ : : : : : 2 : : : : : 2 : ",
": : 0 *.>.i >.=.u : : : 2 2 i ....i 0 3 0 3 u X.>.>...{ 0 : 5 l - 6 > 4 4 4 > : 7 z n l n 4 4 7 4 : : : : : : : : : : : : : : : ",
": : : 1 1 1 3 1 : : : : : 1 r ..X.u 3 3 3 r y ..>.:.....0 : > = 6 < , > = > : : 4 x l ; x b 4 n 4 : : : : : : : : : : : : : : : ",
": : : : : 2 : : : : @ : : : 2 1 u t 0 0 r r 3 0 } { u } 8 : 4 - 4 6 6 > , , 2 : 5 l 5 4 5 7 4 6 : : : : : : : : : : : : : : : : ",
": : : : : : : : : : @ : : : 3 u } X.u 0 r r r 0 0 r y { 0 2 < $ > , : < < < 1 : : > 4 ; b b 5 > : : : : : : : : : : : : : : 2 : ",
": : : : : : : : : : : : 2 : 1 u i i r t r 0 3 3 r r r 3 2 2 2 + < 2 2 2 : , : 2 2 : : % < 4 5 8 : : : : : : @ : : : : : : : : : ",
": : : : : : : : : : : : : 3 e u *...u 3 y P L ^ } 0 r } { : 2 @ : : 1 : 2 2 : 1 : : : @ : 2 : 1 : : : : : : : : : : : : : : : : ",
": : : : : : : : : : : : : : 0 i ..:.f.&.5.+.y } i r i t 3 2 : + 1 : : : : 1 : : : : 2 : : : : 2 : : : : : : : : : : : : : : : : ",
": : : : : : : : : : : : : 3 r } >.j.v.q.+.H u ..i 0 r } 0 : @ + 1 2 : : : : 1 1 , : , @ 2 2 : : : : : : : : : : : : : : : : : : ",
": : : : : : : : : : @ : : : : 1 i >.l.,.+.%.j.*.X.i ..L 3 2 @ + : : : : 1 2 : : : , , @ : 2 2 : : : : : : : : : : : : : : : : : ",
": : = : : : : : : : X : : : 1 : 1 3 t { ..%.=.{ i *...r 1 : @ . @ 2 2 : < , : 2 : , = o : , : : : : : : 2 : : : : : : : : : : : ",
". X & ; = ; k = + X o + + + + + @ + + +   X + + + + + + o o o   . @ o X + + o o X X X X + + @ + @ + + @ . . X o o X X X X X X . ",
"2 ; z c x ' _ ) 9 : > s < > : : : : : : + : : : 2 2 : : o : : + 3 } X.%.:.,.g.g.,.;.:...} { 3 : b b : 2 @ o : : : : : : : : : : ",
": k c E ! [ ] ~ M > : 4 4 m > > , : : : @ : : : : : : : : : : @ 2 0 } %.>.j.x.L  .y.l.l.j.f.{ 3 B r r 2 : @ : : : : : : : : : : ",
", x v x Q ' _ E l > > Z U T o.I N 6 : : @ : : : : : : 2 @ : 2 @ 3 X.>.f.N.k.| t %.&.X.-.j.j.=.0 N r e e : @ 2 : : : : : : : : : ",
", x h v G Y G x l 5 b l z x W 4.+.q : : : : : : : 2 : : 1 : 2 @ r } ..#.:. .J t L L t  .;.%.{ u t t r r @ @ : : : : : : : : : : ",
"= z h c z m z z b z z k V G ~ 2.( w 9 : @ : : : : : : : : 2 : : 0 X.:.,.j.^ y ^ t y t t X...} u r r r r : @ : : : : : : : : : : ",
": k g x z k z M n l z Z A G F D 1.O.U < @ : : : : : 1 : : : : : 0 i =.f.f.| ^ o.r q q q X.:.} 0 0 r u u 3 @ : : : : : : : : 2 : ",
": 4 z k ; 5 ; 7 V 7 4 8 6 o.o.J / ( H < @ : : : 2 : : 1 : : : 1 i #.,.h.v.7.J t r r r 3 r *.*.3 2 e u u 3 2 0 e u 2 : : : : : : ",
": : > > , > , 7 l 4 4 6 I Y B | &.$.K 1 @ : : : 2 : : : : 1 1 : t } =.g.w.p.| t q r u y u i i 0 0 u i i u i X.:.:.2 : : : : : : ",
": : : : : : : 4 n b > N R o.r t +.w.+.3 : : : : : 2 : : 2 2 : 0 t i ..$.9.x.L u t t r r r y r 0 0 r } ..i X.j.V.>.2 : : : : : : ",
": : : : : 2 : : 4 5 4 4 b > S 8 r L 8 : @ : : : : : : : : 1 1 r X.,.,.l.v.b.+.^  .t r r r r r e 0 { :...} f.N.D.V.e : : : : : : ",
": : : : : : : : : > 5 5 b b N 9 6 : : : @ : : : : : 2 : : 2 1 u :.f.>.f.;.u.+.^ P L 0 r r 0 3 0 0 { ....:.f.V.F.m.3 : : : : : : ",
": : : : : : : : : 7 n 7 7 > < > : : : : @ : : : : : : : : : 1 u X.f.N.m.l.z.9.&. .q q 0 r r 0 3 r } X.s.m.l.V.F.j.3 : : : : : : ",
": : : : : : : : : 4 4 : : : : : : : : : : : : : : : : : : : 3 { =.s.s.j.k.x.u.a.w.q.u 3 i r 3 1 e *.:.N.N.s.m.Z.:.2 : : : : : : ",
": : : : : : : : : < : : : : : : : : : : @ : : : : : $ : : : 3 r :.m.V.Z.M.l.M.V.l.N.*.y ..{ e 2 0 } :.m.m.f.j.s.} 2 : : : : : : ",
": : : : : : : : : : : 2 : : : : : : : : @ : : : : : : : : : : : r %.f.V.N.l.f.*.%.f.*.} d.X.3 2 : 2 { ,.=.X.s.:.y : : : : : : : ",
": : : : : : : : : : @ @ : : : : : : : : : : : : : : > V 5 : : @ : : : 2 t y r r i r 2 2 1 2 : : : 2 2 3 2 2 0 r 0 2 : : : : : : ",
": : 3 3 1 1 2 3 r 3 : @ : : : : : : : : X : : : : : > d V : 1 : 3 3 0 0 e i 0 : : : : : : : : 2 : r { i u u ..*.=.2 : : : : : : ",
". X + @ : @ : 3 e 3 . . . + X + o o X .   X o X X X o # # + O 1 2 y e y ..,.r o X X X X X X X . + e { X.i i :.m.:.X X X X X X . ",
": , u } } i } X.,.*.X @ : : : 2 2 : : : : : 2 : : : : : : 1 r i X.=...s.m.N..., = : + X : : : : 3 *.f.j.:.f.V.F.V.0 : : : : : @ ",
": : y #.X...X.f.m.d.: : : : : : : : : : : : : : : : : : : : e =.d.,.X.j.V.D.:.@ : : : @ : : : : 3 s.m.N.f.m.F.F.C.3 : : : 2 : 2 ",
": : { d.,.=.:.k.V.k.: : : : : : : : : : : : : : : : : : : 2 r :.m.d.>.f.l.:.>.: : : @ @ 2 2 : : 2 s.V.V.V.V.D.G.D.0 : : : : 2 : ",
": 2 i X.i e u X.,.s.2 : : : : : : : : : : : : : : : : : : 1 3 } X.>.X...u r ..2 : : : @ : : : : 0 :.,.j.f.:.j.m.Z.0 : : : : : : ",
": : u ..{ u r u *.:.1 : : : : : : : : : : : : : 2 : : : : 3 3 1 1 r { { i u { 2 : : : : : : : : 3 3 2 r t e =.l.m.u : : : : : : ",
": : u e 2 0 ..*.M.d.: : : : : : : : : : : : : : : : : : : : 2 2 3 3 3 3 3 i ..2 : : : @ : : : : 3 2 e i r 0 } >.} 0 : : : : : : ",
": : u 0 2 3 { *.*...: : : : : : : : : : : : : : : : : : : : 2 2 1 2 2 0 0 X.>.1 : : : @ : : : : 2 1 3 t 3 2 3 ..u 1 : : : : 2 : ",
": : 1 : 2 0 r u u 0 : : : : : : : : : : : : : : : : : : : 1 3 3 2 : 1 3 i i } 2 : : : @ : : : : : 0 t } u 3 3 3 r 3 : : : : : : ",
": 2 3 u 2 0 3 r ..u : : : : : : : @ @ : : @ : : : : : : : 2 2 1 1 2 2 3 3 ....: : : 2 @ : : : : : 2 r r r 1 3 r 0 2 : : : : : : ",
": 1 e *.e { 3 u i 1 : : : : : : : : : : : : : : : : : : : 2 : 1 1 3 r e u i { : : : : @ : 2 : : : 0 0 3 r e u e 3 : : : : : : : "
};
