/* XPM */
static char *d8dc3e9325af4f0cdc2d73c506ffb1c4fYybt4WS8fdmUlIy[] = {
/* columns rows colors chars-per-pixel */
"64 64 66 1 ",
"  c #060606",
". c #0C0C0C",
"X c #141414",
"o c #1B1B1B",
"O c #201F20",
"+ c #1F2020",
"@ c #252525",
"# c #282727",
"$ c #292927",
"% c #282728",
"& c #2B2A2B",
"* c #302E2F",
"= c #2F2F30",
"- c #312F30",
"; c #343334",
": c #383637",
"> c #393837",
", c #373738",
"< c #393738",
"1 c #3C3B3B",
"2 c #403F3F",
"3 c #41403F",
"4 c #413F40",
"5 c #444243",
"6 c #484647",
"7 c #494847",
"8 c #494748",
"9 c #4C4B4B",
"0 c #504E4F",
"q c #514F50",
"w c #545253",
"e c #585657",
"r c #575758",
"t c #595758",
"y c #5C5A5B",
"u c #605E5F",
"i c #5F5E60",
"p c #605F60",
"a c #626162",
"s c #636364",
"d c #646364",
"f c #666667",
"g c #686667",
"h c #676668",
"j c #686769",
"k c #686869",
"l c #6B696C",
"z c #6C6B6C",
"x c #6C6C6C",
"c c #6E6E70",
"v c #706F71",
"b c #717072",
"n c #737374",
"m c #737476",
"M c #747576",
"N c #767678",
"B c #787779",
"V c #77787A",
"C c #79797B",
"Z c #7A7A7C",
"A c #7C7C7E",
"S c #7C7C80",
"D c #7E7E82",
"F c #7E7E83",
"G c #808084",
"H c #828387",
/* pixels */
"@@@@@@@@@@@@@@@@@@@@o@@@@@@@@@@@o@@@@@@@@@@@@@@@@@@@@o@@@@@@@@@@",
"@@@@@@@@@@@@@@@@@@@@o@@@@@@@@@@@o@@@@@@@@@@@@@@@@@@@@o@@@@@@@@@@",
"@@@@@@@@@@@@@@@@@@@@o@@@@@@@@@@@o@@@@@@@@@@@@@@@@@@@@o@@@@@@@@@@",
"@@@@@@@@@@@@@@@@@@@@o@@@@@@@@@@@o@@@@@@@@@@@@@@@@@@@@o@@@@@@@@@@",
"@@@@@@@@@@@@@@@@@@@@o@@@@@@@@@@@o@Xo@@@@@@@@@@@@@@@@@o@@@@@@@@@@",
"@@@@@@@@@@@@@@@@@@@@o@@@@@@@@@@@o@oo@@@@@@@@@@@@@@@@@o@@@@@@@@@@",
"@@@@@@@@@@@@@@@@@@@@o@@@@@@@o@@@o@@@@@@@@@@@@@@@@@@@@o&::81:&@@@",
"@@@@@@@@@@@@@@@@@@@@o@@@@@@@o@@@Xo@@@@&1&&@@@@@@@&59yyfmZDDZbw;@",
"@@@@@@@@@@@@@@@@@@@@o@@@@@@@@@@@Xo@@@@;t&&@@@@@@&erlGGGDGGGGDnt&",
"@@@@@@@@@@@@@@@@@@@@o@@@@@@@@@@@o@@@@@&2&&@@@@@@@2fZGGDDGGDVNNf&",
"@@@@@@@@@@@@@@@@@@@@o@@@@@@@@@@@o@@@@@&1&@@@@@@@@1lCANCZZbxNNv8&",
"@@@@@@@@@@@@@@@@@@@@o@@@@@@@@@@@o@@@@@&:&@@@&@@@@;edNMCZAvtbDZy&",
"@@@@@@@@@@@@@@@@@@@@o@@@@@@@@@@@o@@@@@&1:&;&&&&@@1pkNDDGDZbcNBy&",
"@@@@@@@@@@@@@@@@@@@@X@@@@@@@@@@@o@@@@@@<514512:&&5anCNCCNxxbxy1@",
"@@@@@@@@@@@@@@@@@@@@X@@@@@@@@@@@X@@@@@.15888<1;@;5ukckzayw9yy5@@",
"@@@@@@@@@@@@@@@@@@@@o@@@@@@@@@@@o@@@@@@&:2111:@@&*115591*&&&;&@@",
"@@@@@@@@@@@@@@@@@@@@.X@@@@ooo@@oX@@@@@@@#&@@&&@@@@@&@X@@@@@@@@@@",
"o&&-5#&@oooXooooooooooooooooooo. o@;;=&@&@@@@OoooooooXXXXXXXXXXX",
"9swaxwwey1y515&@@@@@@@@@@@@@@@@@@whNccvfjxfft81@@@@@@@@@@@@@@@@@",
"yxybNayncenpw88&@@@@@@@@@@@@@@@@;lNGDCyyylMBfwy&@@@@@@@@@@@@@@@@",
"aMkCNduCBkZltwy&@@@@@@@@@@@@@oo@1MDGGN85wzzxywy;&&@@@@@@@@@@@@@@",
"fCbxewyllypq15k&@@@@@@@@@@@@@o@@1ZDGGh8w559yuja;@&&&&&&@@@@@@@@@",
"kCMw15tyw5:1;1k&@@@@@@@@@@@@@@@@5ZDGnf55215wxkj4&@@@@@@@@@@@@@@@",
"snf:17y05;;8::k&@@@@@@@@@@@@@@@@8ztdk5115512xck9&@@@@@@@@@@@@@@@",
"yxd117y81&&;:;9&@@@@@@@@@@@@@@@@9e51941::1:;196:&&@@@@@@@@@@@@@@",
"efe511>:*&&&:11&@@@@@@@@@@@@@@@@wa:9xyq4:154:55<&&&;;:1555:;&@@@",
"wae5&&1;&@&&;;1&@@@@@@@@o@@@@@@@5e1yn511:551:9f;;wrbnxxa9898q-@@",
"0yy1&&&;:&&&;*8@@@@@@@@@@@@@@@@@5y8yy11:;:;&&181;9kMNnNNde8wy4@@",
"8ee:;;5e1&:;:&1@@@@@@@@@@@@@@@@@2t41ey11:;;&&;::&5rjhNAZZx54y:@@",
"599-1:81;;,:2*%@@@@@@@@@@@@@@@@@19yjxb1::;14;51&&18weyeyfy8wy;@@",
"441:1:w1&&&:;&@@@@@@@@@@@@@@@@@@:19yyu:;1151:85&@<89eedkfayyf1@@",
"11&;118:@&@:&@@@@@@@@@@@@@@@@@@@;&1515;;;251:pw@@1qypflNd9wyt:@@",
"&&@&&::&@@@@@@@@@@@@@@@@@@@@@@@@@@@&&&;@&w5:59;@#18ydlkxjyq91@@@",
"@#@@@&@@@@o@@&@@@@@@@@@@@@@@@@@@@@@@@@&@@5;&11@@@;119www5111&@@@",
"@@@@@&@@&@X@@&@@@&@@@@@@@@@@@@@@o@@@@@@@@&@o&&@@@@&@%&&&@@&&@@@@",
"Xooooooo@oXo@@o@@@@oXo@oo+ooooo..XXXXXXXXXX.oooooo@ooooooooooooo",
"@@@@@o@@&@@@@&@@@&&@@;&&:&:1;:&oX@@@@@@@@@@@@@@@@@@@@.@@@@@@@@@@",
"@@@@@@@@&@@@@@@@&;;&5516<::e954&o@@@@@@@@@@@@@@@@@@@@o@@@@@@@@@@",
"@@@@@@@@@@@&@@@@@;:-:1599::9u9t;o@@@@@@@@@@@@@@@@@@@@o@@@@@@@@@@",
"@@@@@@@@@&&&&@&@&;::59441:1yyyf;o@@@@@@@@@@@@@@@@@@@@o@@@@@@@@@@",
"@@@&@@&@@@@&&&&&&8:21;:21&&w0xz&o@@@@@@@@@@@@@@@@@@@@o@@@@@@@@@@",
"@@@@@@@@&@@&&@&&;11::;;11;&eyVk&o@@@@@@@@@@@@@@@@@@@@o@@@@@@@@@@",
"@@@@@@@@&@@&&@&&&:54;::11&&5sVb;o@@@@@@@@@@@@@@@@@@@@o@@@@@@@@@@",
"@@@@@@@@&&@&&&&&&:15;:151:&1cNM&o@@@@@@@@@@@@@@@@@@@@o@@@@@@@@@@",
"@@@@@@@@&&@@&&&&&:44;:5t85;1Mnz&o@@@@@@@@@@@@@@@@@@@@o@@@@@@@@@@",
"@@@@@@&@&@@&@@&&&111:59yy951Mba@o@@@@@@@@@@@@@@@@@@@@o@@@@@@@@@@",
"@@@@@@@@&@@@@@&&&909652yy419xcw@o@@@@@@@@@@@@@@@@@@@@o@@@@@@@@@@",
"@@@@@@@@@@@@@@@&&q89795dy20eia2@o@@@@@@@@@@@@@@@@@@@@o@@@@@@@@@@",
"@@@@@@@@@@@@@@&@@9:5598f6109e5;@o@@@@@@@@@@@@@@@@@@@@o@@@@@@@@@@",
"@@@@@@@@@@@@@@@@@8&::15w-:156;@@o@@@@@@@@@@@@@@@@@@@@o@@@@@@@@@@",
"@@@@@@@@@@@@@@@@@:@&o1;1@&&:1@@@o@@@@@@@@@@@@@@@@@@@@o@@@@@@@@@@",
"@@@@@@@@@@@@@@@@@&@@o&@&@@@&&@@@o@@@@@@@@@@@@@@@@@@@@o@@@@@@@@@@",
"@@@@@@@@@@@@@@@@@@@@X@XX@@@@@@@@X@@@@@@@@@@@@@@@@@@@@o@@@@@@@@@@",
"oooooooooooooooooooX ...XXXXXXX..@@@@@@@@@@@@@@@@@@@@.@oooo@@@@o",
"o@oooooooo.o@@@@@@@@@@@@@@@@@@@X.oooooooooXXoo@oooo@&1551;&@@@oo",
"@*&1115:1:@&@@@@@@@@@@@@@@@@@@@@o@@@@@@@@@@@@@&@&:;18yaafyrey5&@",
"&95agyNnCVzk91&@%-&@::&@@@@@@@@@o@@@@@&@@@@@@@&@%;;:&&<6ilfdt55@",
"&158qyjkbbwew;:@@&&&:1;@@@@@@@@@o@@@@@@@@&@@@&@@@*#:119yewe:1:6@",
"&<<:5ewyfyes0::@&;&@&1;@@@@@@@@@o@@@@@@@@@@@@&@@@&&;:&;;;1<;1&-@",
"&-&;298we9yy11#@&&&@@@@@@@@@@@@@o@@@@@@@@@@@@@@@@&&::&&&:55;5;1@",
"@;-:3wwwawyx95&@@@&@*4&@@@@@@@@@o@@@@@@&@@@@@@@@@&&;&;&&&&&&585@",
"@;;158weyeey5;@@@@@@@&&@@@@@@@@@o@@@@@@&@@@@@&@&@;<5:&&&&&&:55;@",
"@;&:219w8q88;$@@@@@@&&@@@@@@@@@@o@@@@@@@@@@@@@@@@&&&;&&&&&&&&&@@",
"@&@&&&;;&1::&&@@@@@@&&@@@@@@@@@@o@@@@@@@@@@@@@@@@&@@@@@@@@@@@&@@"
};
