/* XPM */
static char *_b2f38a6d96f4402e36fa4ee7d10d594cKMxnfKHp5CHi7Es[] = {
/* columns rows colors chars-per-pixel */
"64 64 44 1 ",
"  c #0D0B0F",
". c #0E0B0F",
"X c #0D0C0F",
"o c #0E0C10",
"O c #0F0E13",
"+ c #100E11",
"@ c #100F12",
"# c #100E13",
"$ c #120E13",
"% c #110F15",
"& c #120F15",
"* c #111011",
"= c #101012",
"- c #121013",
"; c #131313",
": c #111114",
"> c #121015",
", c #131015",
"< c #121214",
"1 c #131316",
"2 c gray8",
"3 c #161416",
"4 c #161616",
"5 c #171716",
"6 c #171518",
"7 c #171718",
"8 c #181718",
"9 c #191919",
"0 c #1C1C1B",
"q c #1B1B1C",
"w c #1C1B1C",
"e c gray11",
"r c #1C1C1E",
"t c #1F1F1E",
"y c gray12",
"u c #20201F",
"i c #202020",
"p c #222222",
"a c #232322",
"s c #242323",
"d c #232324",
"f c #252524",
"g c #252526",
"h c gray15",
/* pixels */
"rrrrrrru090upt04-OX--->>--==-=OOO==O0rrr0rrrrruppuppuu85->2;&,2>",
">>>->--0pggggfggf0pq0gggr8->>>>>>>>>>>>->>>>-0gggggggfgggghhghgf",
">>>>>>-ggfgffgggfp0ruqf0fr>>>>>>>>>>>>>>>>>>>0ggfgfgfgfgggfgfggg",
">>>>>>7gfgfggfgfgffffa5agq>>>>>>>>>>>>>>>>>>>0gggfgfgfgfgfgfgfgf",
">>>>>>4gfgfgfgfgfgfgfgpraq>>>>>>>>>>>>>>>>>>-9fgfgfgfgfgfgfgfgfg",
">>>>>>4ggfgfgfgfgfgfgfgua0>>>>>>>>>>>>>>>>>>-0gfgfgfgfgfgfgfgfgf",
">>>>>>4gfgfgfgfgfgfgfgfsr0>>>>>>>>>>>>>>>>>>>0fgffugfgfgfgfgfgfg",
">>>>>>4ggfgfgfgfgfgfgfgfrq>>>>>>>>>>>>>>>>>>-0gfgf0ggfgfgfgfgfgf",
">>>>>>4ffggfgfgfgfgfgfggp4>>>>>>>>>>&>>>>>>>>0ggfg9fgfgffggfgfgf",
">>>>>-8ggffgfgfgfgfgfggggr>>>>>>>>O>>>>>>>>>-rgfggrgfgfggffgfggf",
">->-->8ffgggfggfsffgffspp0@>>>&>,>>>>;--->>--9fgf0fgggfffgfgfpsf",
"99qq90r009999909XOXX XO  @   @ O@XX-08q09r990009990090&@XXXX @XX",
"gggggfgfgfgfggfg@>>>>>>>&>>>>>>>@&>4ggfggggfgfgg9fgffg9>>>>>&>>>",
"gggffgfgfgfggfgfO>>>>>>>>>>>>>>>>>>>gggfggfgfggpugfgggw>>>>>>>>>",
"fgfggfgfgfgfgffgO>>>>>>>>>>>>>>>>>>4fguggfgfgfg0ffgfgg0>>>>>>>>>",
"gfgffgfgfgfgfgff@>>>>>>>>>>>>>>>>>&4gfrgfgfgfgf0ggfgggw>>>>>>>>&",
"fgfgfgfgfgfgfgfg-->>>>>>>>>>>>>>>>&4fgsrgfgffgg0fgfggg9&>>>>>>>>",
"gfgfgfgfgfgfgfgf->>>>>>>>>>>>>>>>&&4gff0fgfggfg0gffugg0&>>>>>>>>",
"fgfgfgfgfgfgfgfg=>>>>>>>>>>>>>>>>>&>fgfsrgggfgf0gfgrgg9>>>>>>>>>",
"gfgfgfgfgfgfgfgf->>>>>>>>>>->>>>>>@4gfgguuafgffrfgg0gg0>>>>>>>>>",
"fgggfgggggfggggf=>->>>>>->>OO&-O>&&>sgggfrpgfgfrfggrgg0>>>>->>>>",
"8448449999090998>=;------O-O=XOO@ @-888,44-899040994004---2---->",
"@&>>>>4gfgfgfggfggfffgaggq>>&&>>>>&>>>>>>&==-0g0fgpuffgfgffgfggg",
"&&>>>>4fgfgfgffgggfffgfggr>>>&>>>>>>>>>>>@-O-0grgp9ffgfgfggfgfgf",
">>>>>>4ggfgfgfgfgfgffgfga0>>>>>>>>>>>>>>>>>>&qgqg0fgfgfggfgfgfgf",
">>>>>>8gfgfgfgfgfgfggfgffq>>>>>>>>>>>>>>>>OXX4r40affgfgffgfgfgfg",
">>>>>>4fgfgfgfgfgfgffgfgfr>>>>>>>>>>>>>>>>=O>rgaggfgfgfggfgfgfgf",
">>>>>>4gfgfgfgfgfgfggfgff0>>>>>>>>>>>>>>>O&O-9gffggfgfgffgfgfgfg",
">>>>>>4ggfgfgfgfgffgfgfgarO=>>>>>>>>>>>>>>->>9fggfgffgfggfgfgfgf",
">>>>>>4gfgfgfgfgfggfgfgff0O>>>>>>>>>>>>>>>>>-0ggfgfggfgffgfgfgfg",
">>>>>>8ggggggfggggggfgggfq>>>>>>>>>>>>>>>>>>>0gggggfgggggfgggggf",
">->>>-;spspspfppaaafaaafa>=-&O>>>O>>>->->->>-5aaaaaaaapaaaaaaaaf",
"pppppppppppppppuO&-O-O>OO=&&=O&&-&>-tpppaappppppppppaa0O-=O>O=&O",
"gfgfgfgfgfgfgfgg->->>>>>-O&>>>>>>&>>gggffggfgggffggfgfu>>->>->>>",
"fgfgfgfgfgfgfggpO->>>>>> @>>>>>>>>>4fgfggfgffgfgfgfggga>>>>>>>>>",
"gfgfgfgfgfgfgfff@>>>>>>&O&>>>>>>>>&>gfgffgfggfgfgfgfggt>>>>>>>>>",
"fgfgfgfgfgfgfgff@,,>>>>>O&&&>>>>>>>>fgfggfgfgfgffggfgfp->>>>>>>>",
"gfgfgfgfgfgfgfgf@&>>>>>O-@>>>>>>>>>4gfgffgfgfgfggffgfgf>>>>>>>>>",
"fgfgfgfgfgfgfgfg@>>@&>>X>>>>>>>>>>>;fgfggfgfgfgffgffgfp>>>>>>>>>",
"gfgfgfgfgfgfgfgf@>- &&@O>>>>>>>>>>--gfgffgfgfgfggapgfgt>>>>>>>>>",
"fgfgfgfggfgfgfgf@,&@@&o&->,>>>&O>>&>ggggffgfgggfff0gfgp,>>>>>>>>",
"gfgggfgfggfgfggg@,& &@&&O>>>&&&&>=>>aggffgfgggfgggrfggu@>>>->>@-",
"-2-5>>;q90000909844;--&74; O XOOOXO-4->>5-;->5q90040009444>8248>",
">>>->O5gfgfggfggggf0rgfggrO>>>@,O>>->>>>>>>>>8gggfrgfggfgggggggg",
">>>>>>5ggfgfgfgfgfg0ffgfftO>>>>>>>>>>>>>>>>>>rgfffrffgfgfgfgfgfg",
">>>>>>5gfgfgfgfgfgg0fffggr->>>>>>>>>>>>>>>>>>qgfgsrggfgfgfgfgfgf",
">>>>>>5ggfgfgfgfgffrfggfftO>>>>>>>>>>>>>>>>>>qgggpugfgfgfgfgfgfg",
">>>>>>4gfgfgfgfgfgg0gffggrO>>>>>>>>>>>>>>>>>>qggf0fggfgfgfgfgfgf",
">>>>>>4agggfgfgfgffrftafft-->>>>>>>>>>>>>>>>>rggg0gffgfgfgfgfgfg",
">>>>>>7gggfgfgfgfgraa0gffr=>>>>>>>>>>>>>>>>>>8gffrfggfgfgfgfgfgf",
">>>>>>5ggfgfgfgfgfqgqgfgfu>O>>&&>>>>>>>>>>>>>qfgp9ugfgggfgfgfgfg",
"->->--5gfgfgfgfggru8gggfgr=>>>>&>>>>>>->->---qggfru0gfgggfgfgfgf",
"XOXXXOXq00r00000q4;rqrqr09=X X@oXOXOOXXX=XXXO;q004r9200wr0r0000r",
"gafgfpfgggffggfa-@--=&--&@O>>>->-O-Ouffgfgfagaffpuffu0u@@>>>>>&@",
"gfgfgfgffggfffgu>,>>->>>&>>>>>>>>>>O9gfgfggggfgfruff0f9 @&>>>>>>",
"ggfgggfggffffg9p4&>>>>>>&>>>>>>>>>>-0agfgfggfgfgrfggrgg@&&>>>>>>",
"gfgfgfgffggga0ag7&&>>>>>>>>>>>>>>>>Oupgggfgfgfgf0gfgrgs@>>>>>>>>",
"fgfgfgfggfgtrfff7&&>>>>>>>>>>>>>>>>-p0fgfgfgfgfg0fgg0sgX>>>>>>>>",
"gfgfgfgffgttgfgf7&>>>>>>>>>>>>>>>>>Ofprfgfgfgfgf0ggfs0f=>>>>>>>>",
"fgfgfgfgartgfgfg7&>>>>>>>>>>>>>>>>>Ofgrpfgfgfgfg0ggggst->>>>>>>>",
"gfgfggggragfgfgf8&>>>>>>>>>>&>>>>>-Ouff0pggffggpugfgfgfX>>>>>>>>",
"fgfgggggfgfgfgfg8&>>>>>&>>>>&&>>>>&=ffffaffggfgupggfggg->>>>>>>>",
"gggfggffgggggfgf4>>&>>>&&>>>-&&&>>>Oggfgggfffr0uggfgggs@&>&&>&>>",
";-5>>;-ruuturpur0r90qq00q4=OOOOX-OOO>>>4------ruuuurrpr0qq0w0900"
};
