/* XPM */
static char *d8cb1717ec774f39f0ec1c2704c72977SKPVli0ylMDfyaYw[] = {
/* columns rows colors chars-per-pixel */
"64 64 32 1 ",
"  c #140B0A",
". c #120D0A",
"X c #150C0B",
"o c #130E0D",
"O c #170D0C",
"+ c #180C0A",
"@ c #1E0C0B",
"# c #1E0B0C",
"$ c #1A0E0E",
"% c #1C0F0E",
"& c #11110F",
"* c #15100F",
"= c #1B100E",
"- c #1C110F",
"; c #161110",
": c #210D0B",
"> c #240C0B",
", c #220C0D",
"< c #240E0F",
"1 c #290E0E",
"2 c #2C0F0F",
"3 c #20110F",
"4 c #27100F",
"5 c #2A100F",
"6 c #2E110F",
"7 c #32110F",
"8 c #260E10",
"9 c #2F0F10",
"0 c #211110",
"q c #2F1110",
"w c #331110",
"e c #351010",
/* pixels */
"===========---,wwwwwwwwwwwwwwwwww7$===================1wwwwwwww7",
"==============,7wwwwwwwwwwwwwwwww7$===================1wwwwwwww7",
"==============,wwwwwwwwwwwwwwwwww7$===================1wwwwwwww7",
"==============,wwwwwwwwwwwwwwwwww7$===================1wwwwwwww7",
"==============,wwwwwwwwwwwwwwwwww7$===================1wwwwwwww7",
"==============,wwwwwwwwwwwwwwwwww7$===================1wwwwwwww7",
"==============,wwwwwwwwwwwwwwwwww7$===================1wwwwwwww7",
"==============,7wwwwwwwwwwwwwwwww7$===================1wwwwwwww7",
"%$============,wwwwwwwwwwwwwwwwww7$=$%%%%$===========$1wwwwwwww7",
"$$$$$$$$$$$$=$%wwwwwwwwwq9wwwwwww6O=$$$$$$$$$$$$$$$$$$,wwwwwwww2",
"2221o$$$$$$$OO$$$$$$$$$O$1222222222222222211o$$$$$$$$X$$$$$$$$$O",
"wwwe+===================<wwwwwwwwwwwwwwwwww7%-=================$",
"wwww+===================<wwwwwwwwwwwwwwwwwww%==================$",
"wwww+===================<wwwwwwwwwwwwwwwwwww%==================$",
"wwww+===================<wwwwwwwwwwwwwwwwwww%==================$",
"wwww+===================<wwwwwwwwwwwwwwwwwww%==================$",
"wwww+===================<wwwwwwwwwwwwwwwwwww%==================$",
"wwww+===================<wwwwwwwwwwwwwwwwwww%==================$",
"wwwe+-==================<wwwwwwwwwwwwwwwwww7%==================$",
"www7+-$$$$$$$$==========<wwwwwwwwwwwwwwwwwwe%-$$$$$$===========+",
"<<<<oXXXXXXXXX$XXXXXXXOXO<11111111<<<<<<<<<<oXXXXXXXXOXXXXXXXXXX",
"===--=-------=%wwwwwwwwwewwwwwwww5$========-==------=o3wwwwwwww7",
"==============,wwwwwwwwwwwwwwwww71===================O4wwwwwwww7",
"==============,wwwwwwwwwwwwwwwww71==================$O4ewwwwwww7",
"==============,wwwwwwwwwwwwwwwwww1==================$O4ewwwwwww7",
"==============,wwwwwwwwwwwwwwwwww1==================$O4ewwwwwww7",
"==============,wwwwwwwwwwwwwwwwww1==================$O4ewwwwwww7",
"==============,wwwwwwwwwwwwwwwwww1==================$O4ewwwwwww7",
"==============,wwwwwwwwwwwwwwwwwe1==================$O4ewwwwwww7",
"==============,wwwwwwwwwwwwwwwwww1==================$*4wwwwwwww7",
"%%--=-$$$$$==%,ewwwwwwwewwweeeeew1=-------%===$$$$$=-O4wwwwwww77",
"$$$+OXXXXXXXXXX,::::::,:<2222222221111111111OXXXXXXXXoO,::::::,%",
"wwewX=-------===========,wwwwwwwwwwwwwwwwwww%--------%=========$",
"wwww+===================<wwwwwwwwwwwwwwwwwww%==================$",
"wwwe+===================<wwwwwwwwwwwwwwwwwww%==================$",
"wwww+===================<wwwwwwwwwwwwwwwwwww%==================$",
"wwww+===================<wwwwwwwwwwwwwwwwwww%==================$",
"wwww+===================<wwwwwwwwwwwwwwwwwww%==================$",
"wwww+===================<wwwwwwwwwwwwwwwwwww%==================$",
"wwww+===================<wwwwwwwwwwwwwwwwwww%==================$",
"wwwe+===================8wwwwwwwwwwwwwwwwwww%==================$",
"wwwwX-=========%-------=$4<<<<<<<<<<<<<<<<<<O-========---------$",
",%%%OOOOOOOOOOO,<<<<<<<,0003333333&*******O;OOOOOOOOO$o,<<<<<<<,",
"===$========$-%wwwwwwwewwwwwwwwwww,==================$<wewwwwww7",
"==============%wwwwwwwwwwwwwwwwwww:===================<7wwwwwww7",
"=============$,wwwwwwwwwwwwwwwwwww:===================<7wwwwwww7",
"=============$,wwwwwwwwwwwwwwwwwww:===================<7wwwwwww7",
"=============$,wwwwwwwwwwwwwwwwwww:===================<7wwwwwww7",
"=============$,wwwwwwwwwwwwwwwwwww:===================<7wwwwwww7",
"=============$,wwwwwwwwwwwwwwwwwww:===================<7wwwwwww7",
"==============,wwwwwwwwwwwwwwwwwww:===================<7wwwwwww7",
"=====-========%wwwwwwwwwwwwwwwwww7:========-==========<7wwwwwwww",
"===---%%%%%%%%$weeeeeeeeeewwwwwwww$========-%=%%%%%%--%eeeeeeeww",
":::,.X       XO         .>>>>>>>><3::::::::,oX        OX      XX",
"eeww,-==================%weeeeeewwwweeeeeeww%-=================$",
"wwww,===================#wwwwwwwwwwwwwwwwww7@-=================$",
"wwww,===================#wwwwwwwwwwwwwwwwww7@-=================$",
"wwww,===================#wwwwwwwwwwwwwwwwww7@-=================$",
"wwww,===================#wwwwwwwwwwwwwwwwww7@-=================$",
"wwww,===================#wwwwwwwwwwwwwwwwww7@-=================$",
"wwww,===================#wwwwwwwwwwwwwwwwww7@-=================$",
"wwww,===================#wwwwwwwwwwwwwwwwww7@-=================$",
"wwww,%==========------==%wwwwwwwwwwwwwwwwwww@$==========------=$",
"qqqqO$$$$$$$$=$$$$$$$$$$O2wwwwwwwqwwqqqqqqq6$===$$$$$=$$$$$$$$=$"
};
