/* XPM */
static char *d756c8388fb649abfc3bd85b3cbada84wIyC3vTDOgCHqSwy[] = {
/* columns rows colors chars-per-pixel */
"64 64 11 1 ",
"  c #000D0E",
". c #020D10",
"X c #073E4F",
"o c #083F4D",
"O c #063F50",
"+ c #074F41",
"@ c #084E40",
"# c #04424B",
"$ c #06404F",
"% c #08404D",
"& c #065041",
/* pixels */
"                                                                ",
"            .          .  . .          .  . .          .  . .   ",
"XXXXXXXXXo  @@$XXXXXXXXX  @@%XXXXXXXXXXX  @@%XXXXXXXXXXX  @@%XXX",
"OOOOOOOOO$  ++$OOOOOOOOX  ++$OOOOOOOOOOX  ++$OOOOOOOOOOX  ++$OOO",
"OOOOOOOOO$  ++$OOOOOOOOX  ++$OOOOOOOOOOX  ++$OOOOOOOOOOX  ++$OOO",
"XXX$OOOOO$  +@#XXXX$OOOX  ++$XXXXXX$OOOX  ++$XXXXXX$OOOX  ++$XXX",
"+++@$OOOO$  +++++++@$OOX  +++++++++@$OOX  +++++++++@$OOX  ++++++",
"+++@$XXXXX..@++++++@$XXX  @++++++++@$XXX  @++++++++@$XXX  @+++++",
"                                                                ",
"                                                                ",
" .@@$XXXXXXXXXXX .@@$XXXXXXXXXXX .@@$XXXXXXXXXXX .@@$XXXXXXXXXXX",
"  @+$OOOOOOOOOOO  @+$OOOOOOOOOOO  @+$OOOOOOOOOOO  @+$OOOOOOOOOOO",
"  @+$OOOOOOOOOOO  @+$OOOOOOOOOOO  @+$OOOOOOOOOOO  @+$OOOOOOOOOOO",
"  @+$$$$$$$$OOOO  @+$$$$$$$$OOOO  @+$$$$$$$$OOOO  @+$$$$$$$$OOOO",
"  @+&&&&&&&+$OOO  @+&&&&&&&+$OOO  @+&&&&&&&+$OOO  @+&&&&&&&+$OOO",
"  @+++++++++$OOO  @+++++++++$OOO  @+++++++++$OOO  @+++++++++$OOO",
"                                                                ",
"       .  . .          .  . .          .  . .          .  . .   ",
"XXXXXXXX  @@%XXXXXXXXXXX  @@%XXXXXXXXXXX  @@%XXXXXXXXXXX  @@%XXX",
"OOOOOOOX  ++$OOOOOOOOOOX  ++$OOOOOOOOOOX  ++$OOOOOOOOOOX  ++$OOO",
"OOOOOOOX  ++$OOOOOOOOOOX  ++$OOOOOOOOOOX  ++$OOOOOOOOOOX  ++$OOO",
"XXX$OOOX  ++$XXXXXX$OOOX  ++$XXXXXX$OOOX  ++$XXXXXX$OOOX  ++$XXX",
"+++@$OOX  +++++++++@$OOX  +++++++++@$OOX  +++++++++@$OOX  ++++++",
"+++@$XXX  @++++++++@$XXX  @++++++++@$XXX  @++++++++@$XXX  @+++++",
"                                                                ",
"                                                                ",
" .@@$XXXXXXXXXXX .@@$XXXXXXXXXXX .@@$XXXXXXXXXXX .@@$XXXXXXXXXXX",
"  @+$OOOOOOOOOOO  @+$OOOOOOOOOOO  @+$OOOOOOOOOOO  @+$OOOOOOOOOOO",
"  @+$OOOOOOOOOOO  @+$OOOOOOOOOOO  @+$OOOOOOOOOOO  @+$OOOOOOOOOOO",
"  @+$$$$$$$$OOOO  @+$$$$$$$$OOOO  @+$$$$$$$$OOOO  @+$$$$$$$$OOOO",
"  @+&&&&&&&+$OOO  @+&&&&&&&+$OOO  @+&&&&&&&+$OOO  @+&&&&&&&+$OOO",
"  @+++++++++$OOO  @+++++++++$OOO  @+++++++++$OOO  @+++++++++$OOO",
"                                                                ",
"       .  . .          .  . .          .  . .          .  . .   ",
"XXXXXXXX  @@%XXXXXXXXXXX  @@%XXXXXXXXXXX  @@%XXXXXXXXXXX  @@%XXX",
"OOOOOOOX  ++$OOOOOOOOOOX  ++$OOOOOOOOOOX  ++$OOOOOOOOOOX  ++$OOO",
"OOOOOOOX  ++$OOOOOOOOOOX  ++$OOOOOOOOOOX  ++$OOOOOOOOOOX  ++$OOO",
"XXX$OOOX  ++$XXXXXX$OOOX  ++$XXXXXX$OOOX  ++$XXXXXX$OOOX  ++$XXX",
"+++@$OOX  +++++++++@$OOX  +++++++++@$OOX  +++++++++@$OOX  ++++++",
"+++@$XXX  @++++++++@$XXX  @++++++++@$XXX  @++++++++@$XXX  @+++++",
"                                                                ",
"                                                                ",
" .@@$XXXXXXXXXXX .@@$XXXXXXXXXXX .@@$XXXXXXXXXXX .@@$XXXXXXXXXXX",
"  @+$OOOOOOOOOOO  @+$OOOOOOOOOOO  @+$OOOOOOOOOOO  @+$OOOOOOOOOOO",
"  @+$OOOOOOOOOOO  @+$OOOOOOOOOOO  @+$OOOOOOOOOOO  @+$OOOOOOOOOOO",
"  @+$$$$$$$$OOOO  @+$$$$$$$$OOOO  @+$$$$$$$$OOOO  @+$$$$$$$$OOOO",
"  @+&&&&&&&+$OOO  @+&&&&&&&+$OOO  @+&&&&&&&+$OOO  @+&&&&&&&+$OOO",
"  @+++++++++$OOO  @+++++++++$OOO  @+++++++++$OOO  @+++++++++$OOO",
"                                                                ",
"       .  . .          .  . .          .  . .          .  . .   ",
"XXXXXXXX  @@%XXXXXXXXXXX  @@%XXXXXXXXXXX  @@%XXXXXXXXXXX  @@%XXX",
"OOOOOOOX  ++$OOOOOOOOOOX  ++$OOOOOOOOOOX  ++$OOOOOOOOOOX  ++$OOO",
"OOOOOOOX  ++$OOOOOOOOOOX  ++$OOOOOOOOOOX  ++$OOOOOOOOOOX  ++$OOO",
"XXX$OOOX  ++$XXXXXX$OOOX  ++$XXXXXX$OOOX  ++$XXXXXX$OOOX  ++$XXX",
"+++@$OOX  +++++++++@$OOX  +++++++++@$OOX  +++++++++@$OOX  ++++++",
"+++@$XXX  @++++++++@$XXX  @++++++++@$XXX  @++++++++@$XXX  @+++++",
"                                                                ",
"                                                                ",
" .@@$XXXXXXXXXXX .@@$XXXXXXXXXXX .@@$XXXXXXXXXXX .@@$XXXXXXXXXXX",
"  @+$OOOOOOOOOOO  @+$OOOOOOOOOOO  @+$OOOOOOOOOOO  @+$OOOOOOOOOOO",
"  @+$OOOOOOOOOOO  @+$OOOOOOOOOOO  @+$OOOOOOOOOOO  @+$OOOOOOOOOOO",
"  @+$$$$$$$$OOOO  @+$$$$$$$$OOOO  @+$$$$$$$$OOOO  @+$$$$$$$$OOOO",
"  @+&&&&&&&+$OOO  @+&&&&&&&+$OOO  @+&&&&&&&+$OOO  @+&&&&&&&+$OOO",
"  @+++++++++$OOO  @+++++++++$OOO  @+++++++++$OOO  @+++++++++$OOO"
};
